<svg width="312" height="91" viewBox="0 0 312 91" fill="none" xmlns="http://www.w3.org/2000/svg">
<path d="M81.8748 44.7009C81.8748 49.5772 81.7562 54.4535 81.9064 59.3219C82.104 65.7788 79.2973 70.5049 73.8419 73.6425C65.4136 78.4951 56.8826 83.1738 48.399 87.9394C43.3943 90.753 38.3658 90.8162 33.3848 87.9631C24.4822 82.8735 15.5005 77.9102 6.77974 72.5281C2.39169 69.8252 0.264865 65.2414 0.154175 60.1359C-0.0513916 50.2648 -0.0513916 40.3778 0.154175 30.5067C0.280677 24.4844 2.86607 19.6002 8.28986 16.518C16.7576 11.7128 25.2807 7.0025 33.701 2.1104C39.5202 -1.27218 45.0625 -0.260565 50.5022 2.8296C58.2821 7.2475 66.0224 11.7286 73.7312 16.273C79.0917 19.4422 82.2068 23.9233 81.9222 30.483C81.7166 35.217 81.8827 39.9669 81.8827 44.7088L81.8748 44.7009ZM42.8488 64.3483C42.5009 64.0006 42.1609 63.6528 41.813 63.2972C42.5088 62.3883 43.0227 61.2028 43.924 60.6338C46.5806 58.9425 49.3794 57.4883 52.1388 55.9551C58.3453 52.5014 64.6625 49.2215 70.6793 45.4596C71.9997 44.6298 72.2369 42.0849 72.9801 40.3225C71.3671 40.4648 69.4933 40.1249 68.1809 40.8283C61.1125 44.6219 54.2023 48.6999 47.2052 52.612C45.7109 53.4498 44.0663 54.003 42.493 54.6906C42.2321 54.3191 41.979 53.9477 41.7181 53.5683C42.5957 52.691 43.339 51.5925 44.3747 50.984C49.3636 48.0598 54.4316 45.2778 59.468 42.4327C63.2473 40.2988 67.2005 38.3941 70.6872 35.8651C71.9918 34.9167 72.1973 32.4746 72.9089 30.7043C71.3988 30.8781 69.7384 30.7043 68.4102 31.2891C66.0145 32.3402 63.8324 33.8656 61.5316 35.1538C55.1907 38.7023 48.8339 42.2351 42.4851 45.7757C42.1846 45.4359 41.8842 45.096 41.5837 44.7562C42.493 43.7367 43.2204 42.409 44.3431 41.753C52.1704 37.1928 60.1005 32.8065 67.9516 28.278C71.5174 26.2231 71.5016 25.1878 68.086 23.1962C60.8121 18.9601 53.5224 14.7477 46.2406 10.5273C43.4813 8.93089 40.7061 8.2354 37.678 9.97411C29.4711 14.6923 21.2247 19.3473 13.0021 24.0419C10.2427 25.6146 9.00144 27.9223 9.04888 31.1943C9.18329 40.1486 9.23863 49.103 9.04888 58.0573C8.96191 62.1354 10.6064 64.7198 14.0457 66.6719C21.3671 70.8211 28.6251 75.073 35.8279 79.4277C39.2513 81.4983 42.4851 81.3956 45.8453 79.4593C53.4829 75.0572 61.16 70.7262 68.7501 66.253C70.1812 65.4073 71.6834 64.2377 72.4345 62.8388C73.0512 61.6849 72.6085 59.9541 72.6401 58.4841C71.4541 58.7212 70.1179 58.6817 69.1059 59.2349C61.4842 63.392 53.9335 67.6756 46.3434 71.9038C45.1574 72.5677 43.9161 73.1288 42.6985 73.7373C42.3665 73.3422 42.0423 72.9391 41.7102 72.544C42.6037 71.643 43.3469 70.4891 44.4063 69.8806C52.961 64.9648 61.5711 60.1517 70.1654 55.3228C72.9326 53.7659 74.3874 51.8375 71.9759 48.1546C62.2115 53.5841 52.5262 58.9583 42.8408 64.3404L42.8488 64.3483Z" fill="black"/>
<path d="M224.815 33.4229C228.246 32.0161 231.282 30.3406 234.532 29.5187C241.063 27.8669 244.739 30.7121 245.055 37.3666C245.285 42.2271 245.3 47.1034 245.3 51.9718C245.3 53.8211 245.348 55.2042 247.696 55.7416C248.534 55.9313 249.325 57.8044 249.443 58.9819C249.499 59.5194 247.925 60.689 247.024 60.7681C244.32 61.0131 241.584 60.855 238.382 60.855C238.382 54.074 238.446 47.9095 238.366 41.7529C238.287 36.1574 237.528 35.1695 233.828 35.2011C228.523 35.2486 224.435 38.3782 224.412 42.4563C224.388 46.5265 224.412 50.5966 224.412 54.7458C225.36 55.0461 226.388 55.0619 226.76 55.5677C227.527 56.5952 228.27 57.8518 228.357 59.0689C228.396 59.6063 226.839 60.7207 225.953 60.776C222.672 60.9815 219.359 61.021 216.086 60.7681C215.13 60.6969 213.659 59.5194 213.532 58.6816C213.39 57.7569 214.371 55.8839 215.13 55.7337C217.636 55.2358 217.375 53.584 217.375 51.869C217.367 48.3126 217.438 44.7561 217.351 41.1997C217.288 38.6469 218.427 35.541 214.442 34.474C214.086 34.3792 213.793 31.289 214.489 30.4908C216.521 28.191 223.866 30.3881 224.823 33.415L224.815 33.4229Z" fill="black"/>
<path d="M300.835 59.1321C295.743 59.796 291.205 60.6258 286.627 60.9104C283.504 61.1079 281.63 59.1954 280.895 56.0341C279.045 48.0913 281.685 44.0449 289.758 42.8594C292.225 42.4958 294.763 42.5037 297.174 41.9347C298.566 41.6028 300.613 40.6623 300.866 39.6349C301.436 37.2402 300.076 34.8534 297.49 34.8218C293.948 34.7902 289.386 32.5931 287.473 38.1649C287.267 38.7734 285.386 39.1686 284.374 39.0184C283.67 38.9157 282.753 37.7934 282.571 36.9873C281.551 32.3165 282.539 30.7042 287.244 30.0403C291.126 29.495 295.103 29.0604 299 29.2974C304.748 29.6531 307.444 32.6168 307.8 38.4494C308.069 42.9068 307.974 47.38 307.943 51.8454C307.935 53.6868 308.014 55.062 310.338 55.631C311.16 55.8286 311.88 57.757 311.999 58.9662C312.046 59.472 310.401 60.6891 309.563 60.6495C306.29 60.4994 302.329 62.4594 300.835 59.1479V59.1321ZM300.629 45.9495C297.182 46.3368 293.838 46.3131 290.778 47.2457C289.449 47.6487 288.145 49.9328 287.9 51.5292C287.71 52.7621 288.856 55.0303 289.979 55.5045C295.68 57.8913 301.617 52.8886 300.629 45.9574V45.9495Z" fill="black"/>
<path d="M210.931 46.3999C210.931 47.4036 211.058 49.253 210.907 51.0786C210.465 56.3817 207.057 60.2384 201.783 60.9102C182.16 63.3997 180.009 55.6467 182.017 38.1726C182.61 32.9723 186.224 30.2378 191.347 29.5186C191.473 29.5028 191.608 29.4791 191.734 29.4633C207.017 27.5507 211.872 33.1857 210.931 46.3999ZM203.966 45.3883C203.966 43.8076 204.029 42.227 203.95 40.6542C203.713 35.9913 202.021 34.6952 196.217 34.6478C190.738 34.6004 188.58 36.1968 188.342 40.678C188.208 43.3018 188.279 45.9336 188.311 48.5654C188.39 54.1846 190.058 55.8521 195.624 55.9628C202.424 56.0971 203.942 54.6034 203.958 47.7513C203.958 46.961 203.958 46.1707 203.958 45.3883H203.966Z" fill="black"/>
<path d="M265.343 61.5979C262.489 61.179 259.555 61.0288 256.788 60.2938C252.645 59.1953 251.443 57.0377 252.424 52.8964C252.637 51.9955 253.799 50.6598 254.487 50.6756C255.681 50.7072 257.405 51.3316 257.942 52.2642C260.164 56.0893 266.908 57.9308 270.355 55.1251C271.273 54.3743 272.008 52.5013 271.739 51.4185C271.423 50.1698 270.079 48.6682 268.861 48.273C265.501 47.1824 261.927 46.7714 258.52 45.7914C253.104 44.2345 251.475 41.0653 252.677 35.5963C253.396 32.3243 255.507 30.1035 258.496 29.9929C264.062 29.7953 269.707 30.0403 275.226 30.799C278.942 31.3127 277.867 34.9008 277.519 37.2955C277.408 38.0779 275.25 38.7655 273.929 39.0658C273.399 39.1843 272.34 38.2834 271.984 37.6037C270.221 34.229 262.583 32.838 259.872 35.4856C257.966 37.3508 258.788 39.9826 261.753 40.8124C264.663 41.6185 267.699 41.9584 270.624 42.7013C276.973 44.3135 279.25 47.1192 278.728 52.438C278.183 58.0256 275.305 60.6258 268.924 61.2106C267.746 61.3213 266.56 61.2264 265.374 61.2264C265.367 61.345 265.351 61.4714 265.343 61.59V61.5979Z" fill="black"/>
<path d="M108.891 36.2998C110.852 41.6819 112.82 47.064 114.781 52.454C115.105 52.5172 115.429 52.5804 115.754 52.6515C117.999 47.2141 120.244 41.7688 122.585 36.0943C121.604 35.5885 120.553 35.383 120.142 34.7507C119.565 33.8577 119.106 32.6011 119.272 31.6052C119.383 30.9414 120.616 30.0088 121.391 29.9693C124.538 29.7954 127.716 29.748 130.839 30.0483C131.764 30.1352 133.203 31.4867 133.251 32.3244C133.306 33.2333 132.096 34.3002 131.29 35.1696C129.977 36.5843 128.001 37.6433 127.257 39.2793C124.506 45.3727 122.031 51.6083 119.683 57.8756C118.837 60.1359 117.509 60.9183 115.279 60.8946C113.058 60.8709 111.326 60.6338 110.369 58.0415C107.966 51.5214 105.325 45.0802 102.566 38.6944C101.973 37.3272 100.392 36.4183 99.4111 35.1854C98.6126 34.1817 97.3792 32.8856 97.561 31.953C97.7271 31.0915 99.4586 30.1115 100.613 29.9614C102.937 29.6531 105.365 29.6452 107.689 29.9377C109.318 30.1431 110.86 31.052 112.441 31.6527C111.611 33.1701 110.773 34.6875 109.942 36.2049C109.595 36.2365 109.239 36.2761 108.891 36.3077V36.2998Z" fill="black"/>
<path d="M151.997 45.4754C152.115 30.7912 162.876 24.2473 176.348 30.7359C178.618 31.8265 179.614 38.9789 177.495 40.0854C175.661 41.0417 173.344 41.176 172.877 38.3941C172.016 33.2412 167.983 34.972 165.09 34.7744C162.069 34.5689 159.571 36.031 159.326 39.4294C159.057 43.223 158.772 47.0798 159.168 50.8338C159.698 55.8207 167.477 57.6068 171.96 54.1768C173.447 53.0388 175.502 52.5646 177.368 52.1062C177.677 52.0351 179.029 53.9714 178.807 54.3744C177.803 56.1922 176.767 58.4762 175.091 59.3456C169.723 62.1433 163.872 62.0406 158.195 60.3177C154.78 59.2823 152.938 56.4372 152.455 52.9439C152.115 50.4781 152.131 47.9649 151.989 45.4754H151.997Z" fill="black"/>
<path d="M135.947 60.855C135.702 57.9862 134.927 55.8444 138.2 55.2438C138.872 55.1173 139.592 53.2521 139.639 52.1615C139.797 48.0992 139.687 44.0291 139.679 39.9589C139.679 37.7776 140.216 35.4146 136.919 34.8455C136.39 34.7507 135.804 32.8855 135.907 31.8976C135.978 31.2021 137.093 30.1747 137.852 30.072C139.916 29.7875 142.153 29.495 144.09 30.0325C145.197 30.3407 146.518 32.2533 146.573 33.4941C146.842 39.5163 146.715 45.5623 146.715 51.5925C146.715 53.4418 146.454 55.22 149.103 55.7654C149.83 55.9155 150.613 57.7807 150.582 58.8318C150.558 59.5273 149.15 60.7128 148.312 60.7523C144.28 60.9578 140.232 60.8471 135.963 60.8471L135.947 60.855Z" fill="black"/>
</svg>
