<svg width="218" height="170" viewBox="0 0 218 170" fill="none" xmlns="http://www.w3.org/2000/svg">
<path d="M213.79 168.899L4.06984 169.669L0.569839 166.169L0.00983942 50.6295C-0.130161 47.9495 0.879839 45.2595 3.09984 43.7195L206.66 0.289457C214.08 -1.15054 216.58 2.90946 217.1 9.63946L216.38 163.999L213.79 168.899ZM176.74 90.4995C177.75 91.3695 177.76 93.4095 179.73 94.0095C181.94 94.6795 191.17 93.8295 193.08 92.7095C195.79 91.1395 191.8 85.6395 190.58 84.1595C182.66 74.5295 164.39 72.8495 153.36 76.9895C129.58 85.9095 126.12 121.689 147.71 135.029C162.2 143.979 188.02 140.399 194.08 122.639C194.04 119.279 183.44 118.749 180.72 118.269C178.32 119.029 177.68 126.119 170.11 127.739C151.55 131.689 143.85 106.699 153.05 93.6695C158.56 85.8695 169.4 84.1095 176.74 90.4995ZM38.0598 76.1795H23.5598L22.1998 77.8195V136.539C22.9598 138.929 36.6198 138.729 38.1198 137.739C40.9798 135.839 36.6798 107.419 41.1998 99.8195C45.7198 92.2195 54.3298 90.8695 62.1198 90.7395C64.1398 89.3895 62.5598 79.0395 63.0598 76.1695C57.3498 75.5695 51.4798 77.1595 46.7198 80.3395C44.5898 81.7595 42.8898 84.7895 40.5698 85.1895C38.5998 85.5295 39.1798 85.0295 39.0898 83.6695C38.9198 81.0495 38.4498 78.7195 38.0598 76.1695V76.1795ZM88.0598 76.1795H71.5598C71.4298 76.1795 69.6298 77.5895 70.4698 78.2395L91.5398 137.199C93.1598 139.169 107.67 138.129 111.08 137.699L113.24 133.859L134.06 76.1795H117.06C113.74 86.8695 111 98.2495 107.1 108.719C105.83 112.119 103.93 119.709 100.04 115.459L88.0598 76.1795Z" fill="black"/>
</svg>
