<svg xmlns="http://www.w3.org/2000/svg" width="64" height="64" fill="none" viewBox="0 0 64 64"><g clip-path="url(#a)"><path fill="#fd9800" d="M63.856 43.39c-.533 3.69-2.678 7.055-5.959 8.3.735 2.253.902 4.446.118 6.72-1.93 5.606-8.473 7.435-12.626 3.466-2.5-2.387-3.378-6.073-2.295-9.514h-22.13c2.065 6.67-3.28 13.087-9.574 11.346-1.817-.502-3.605-1.938-4.602-3.667-1.503-2.61-1.604-5.493-.628-8.35C2.768 50.348.495 46.83.196 42.92c.48-9.992-.622-20.673 0-30.586C.622 5.55 5.736.571 11.82.173 19.39-.323 27.559.417 35.165.35c4.352.706 8.28 4.37 9.579 8.963.492 1.738.616 3.585.587 5.405h7.77c5.222 0 10.294 6.217 10.755 11.685.46 5.467-.34 11.519 0 16.986m-21.26 6.114v-37.71c0-3.75-4.583-8.485-8.036-8.61l-23.48-.016c-4.69.63-7.97 4.775-8.27 9.85-.56 9.55.418 19.735 0 29.35-.112 3.168 2.964 7.136 5.905 7.136h33.88M61.244 32.11v-4.96c0-4.649-4.51-9.58-8.764-9.58h-7.148v14.54zM45.33 49.504H55.34c2.848 0 5.904-3.827 5.904-6.863v-7.473l-.187-.204H45.329v14.54zM8.987 52.381c-2.742 4.683 1.73 10.327 6.468 8.29 2.935-1.26 4.286-5.335 2.526-8.246l-8.994-.047zm37.178.003c-.34.11-.749 1.459-.804 1.841-.688 4.834 3.785 8.483 7.762 6.174 2.604-1.512 3.6-5.192 2.03-7.974l-8.991-.041z"/></g><defs><clipPath id="a"><path fill="#fff" d="M0 0h64v64H0z"/></clipPath></defs></svg>