<svg xmlns="http://www.w3.org/2000/svg" width="64" height="64" fill="none" viewBox="0 0 64 64"><g clip-path="url(#a)"><path fill="#fd9800" d="M64 6.08v3.163l-8.285-.033C49.052 5.941 43.186-.832 36.249 6.15c-3.983 4.008-8.272 8.858-12.064 13.153-1.565 1.773-2.95 2.874-2.814 5.69.124 2.568 2.26 4.354 4.429 4.076 1.434-.184 2.446-1.437 3.451-2.5 3.314-3.497 6.38-7.35 9.683-10.86.198-.21 1.508-1.588 1.611-1.567l1.827 2.075-5.564 6.11.125.292 19.849 17.141 7.217.11v3.02l-7.62.076L32.038 64 7.563 42.888H0v-3.02h8.438l23.52 20.244L54 41.303l-19.19-16.65c-3.535 3.236-5.562 8.328-10.817 7.386-5.082-.908-6.872-8.154-3.683-12.589 2.051-2.852 5.322-5.754 7.69-8.407.717-.803 1.406-1.64 2.121-2.447-.703-.723-1.41-1.61-2.12-2.303-7.23-7.054-12.764-.615-19.69 2.95H0V6.079h7.812C13.74 2.92 18.94-2.19 25.836 1.022c2.47 1.15 4.331 3.429 6.227 5.488 1.85-1.91 3.323-3.936 5.642-5.154C44.898-2.418 49.963 2.81 56.217 6.05L64 6.08z"/></g><defs><clipPath id="a"><path fill="#fff" d="M0 0h64v64H0z"/></clipPath></defs></svg>