<svg xmlns="http://www.w3.org/2000/svg" width="64" height="64" fill="none" viewBox="0 0 64 64"><g fill="#fd9800" clip-path="url(#a)"><path d="m31.05 0 3.145.412c9.144 1.55 16.583 7.297 21.008 15.336 3.501 6.36 5.798 13.521 8.797 20.128V40l-6.348.016c-.915 3.501-1.276 7.269-2.178 10.756-.609 2.353-3.028 5.227-5.64 5.227h-7.176v8H8.085V51.562c0-1.92-3.218-5.48-4.265-7.353C-6.645 25.489 5.47 1.264 27.128.131L27.429 0zM10.705 51.063v10.125l.188.187h29.143v-8h9.297c1.266 0 3.078-1.462 3.403-2.716l2.656-13.277 5.78-.023c.332-.109.225-.826.144-1.11-6.03-13.577-9.59-29.283-26.272-32.937C12.717-1.58-4.456 21.404 5.48 41.67c1.475 3.009 4.863 6.184 5.224 9.392z"/><path d="M29.427 13.376v6.75c2.401.268 4.345 1.632 5.947 3.356l5.66-3.18.313.073 1.134 2.128-5.698 3.328c.467 1.708.784 3.305.478 5.076-.076.438-.5 1.481-.473 1.781.032.367 5.131 2.991 5.746 3.508L41.226 38.5l-5.849-3.354c-1.49 1.77-3.59 3.135-5.947 3.356v6.687l-.187.188H26.87l-.188-.188v-6.687c-2.356-.22-4.459-1.587-5.946-3.356l-5.85 3.354-1.307-2.303c.621-.542 5.71-3.1 5.745-3.509.027-.3-.397-1.343-.472-1.781-.307-1.773.01-3.37.478-5.076l-5.699-3.328 1.135-2.128.313-.074 5.66 3.179c1.604-1.713 3.542-3.107 5.947-3.354v-6.75h2.745zm3.326 20.706c5.957-5.973-2.574-15.327-9.002-9.827-6.987 5.979 2.638 16.207 9.002 9.827"/></g><defs><clipPath id="a"><path fill="#fff" d="M0 0h64v64H0z"/></clipPath></defs></svg>