<svg xmlns="http://www.w3.org/2000/svg" width="64" height="64" fill="none" viewBox="0 0 64 64"><g fill="#fd9800" clip-path="url(#a)"><path d="m0 30.62 15.066-7.526 7.622-15.19 7.56 15.126 15.002 7.714-15.056 7.537-7.445 15.053-7.683-15.061L0 30.745zm6 .123 11.065 5.521 5.623 11.045 5.622-11.045 10.938-5.58-11.001-5.646-5.5-11.108-5.657 11.135-11.092 5.68zM54.16 44.516l9.715 4.865-9.619 4.9L49.251 64l-4.747-9.603c-2.841-1.852-6.682-2.99-9.467-4.798-.12-.079-.224.013-.16-.28l9.493-4.714 4.943-9.717 4.846 9.626zm3.715 4.803-5.566-2.76-3.058-5.775-2.785 5.739-5.716 2.796 5.68 3.016 2.881 5.767 2.846-5.74c1.68-1.011 3.944-1.719 5.556-2.765.122-.078.224.014.16-.28zM56.034 7.997 64 12.044l-7.966 3.925-3.909 7.996-4.13-7.961-7.868-4.022 7.815-3.95L52.063 0zm-2 2.008-1.97-3.981-2.008 3.882-3.93 2.078 3.93 2.077 2.007 3.883 2.056-3.959L58 12.044l-3.966-2.04z"/></g><defs><clipPath id="a"><path fill="#fff" d="M0 0h64v64H0z"/></clipPath></defs></svg>