<svg xmlns="http://www.w3.org/2000/svg" width="68" height="68" fill="none" viewBox="0 0 68 68"><g fill="#fd9800" clip-path="url(#a)"><path d="m0 56.578 11.813-11.769c-.396-1.373-.427-2.807-.368-4.232.018-.449.26-1.008.25-1.45-.054-2.489-2.518-3.338-3.914-4.991-2.937-3.48-2.733-8.684.332-12.023 1.082-1.18 2.743-1.722 3.301-3.346.515-1.499-.054-2.276-.108-3.683-.172-4.503 3.333-8.958 7.925-9.366 2.18-.193 4.361.872 6.251-.534.893-.665 1.479-1.971 2.392-2.792 3.394-3.052 8.465-3.226 11.982-.265 1.661 1.396 2.397 3.814 4.922 3.865.553.01 1.075-.241 1.597-.274C52.63 5.335 57.082 9.39 56.683 15.74c-.072 1.163-.501 1.694-.061 2.987.483 1.42 1.537 1.771 2.527 2.656 3.911 3.496 4.408 9.113.864 13.088-1.46 1.637-3.633 2.094-3.607 4.781.005.578.234 1.168.275 1.727.095 1.32-.15 2.536-.378 3.819l11.491 11.517.198.4H56.814v11.29h-.133l-15.3-15.272c-3.255 5.199-11.152 5.204-14.636.194l-.193-.056L11.44 68.008h-.134v-11.29H-.005v-.133zM33.641 2.83c-5.279.361-4.919 6.384-11.082 5.935-2.672-.195-4.433-.626-6.596 1.522-3.258 3.239-.468 6.495-2.098 9.99-1.43 3.07-4.932 3.25-5.33 7.43-.505 5.26 4.106 5.384 5.505 9.081.946 2.497-.106 4.035.26 6.38.365 2.346 2.445 4.368 4.7 4.87 2.389.535 4.263-.702 6.814.37 3 1.263 3.523 4.853 7.156 5.343 6.292.85 5.943-5.368 11.14-5.815 1.797-.154 3.162.495 5 .077 3.035-.69 5.028-3.562 4.783-6.644-.036-.441-.228-.893-.262-1.332-.475-6.418 5.2-5.964 5.82-10.524.886-6.546-5.306-6.038-5.82-11.122-.275-2.723 1.036-4.203-.691-7.01-2.983-4.846-7.128-1.497-10.883-3.216-2.327-1.065-2.841-3.3-4.937-4.504-1.02-.585-2.283-.919-3.476-.837zM6.92 53.788h7.187v7.304l10.247-10.227c-1.075-.356-1.99.062-2.996.131-3.227.22-6.182-.98-8.115-3.582l-6.32 6.372zm54.292 0-6.32-6.372c-2.043 2.61-4.92 3.821-8.25 3.58-.954-.07-1.818-.492-2.862-.13l10.113 10.226v-7.106l.201-.2h7.12z"/><path d="m45.328 20.332 2.042 1.917L33.803 35.8c-1.843 1.365-4.284 1.373-6.112-.015l-8.249-8.248c-.082-.316 1.728-2.053 1.898-2.023l8.002 7.958c.98.704 2.042.722 2.929-.128l13.057-13.008z"/></g><defs><clipPath id="a"><path fill="#fff" d="M0 0h68v68H0z"/></clipPath></defs></svg>